<svg id="visual" viewBox="0 0 320 480" width="320" height="480" xmlns="http://www.w3.org/2000/svg" xmlns:xlink="http://www.w3.org/1999/xlink" version="1.1"><path d="M0 78L36 212L71 68L107 97L142 150L178 107L213 78L249 116L284 169L320 102L320 0L284 0L249 0L213 0L178 0L142 0L107 0L71 0L36 0L0 0Z" fill="#032d3a"></path><path d="M0 289L36 294L71 236L107 246L142 265L178 236L213 265L249 289L284 279L320 284L320 100L284 167L249 114L213 76L178 105L142 148L107 95L71 66L36 210L0 76Z" fill="#042732"></path><path d="M0 351L36 371L71 361L107 347L142 399L178 366L213 327L249 327L284 390L320 337L320 282L284 277L249 287L213 263L178 234L142 263L107 244L71 234L36 292L0 287Z" fill="#05222b"></path><path d="M0 443L36 433L71 428L107 443L142 447L178 423L213 414L249 399L284 452L320 404L320 335L284 388L249 325L213 325L178 364L142 397L107 345L71 359L36 369L0 349Z" fill="#051c24"></path><path d="M0 481L36 481L71 481L107 481L142 481L178 481L213 481L249 481L284 481L320 481L320 402L284 450L249 397L213 412L178 421L142 445L107 441L71 426L36 431L0 441Z" fill="#02171d"></path></svg>